<svg width="23" height="28" viewBox="0 0 23 28" fill="#FFFFFF" xmlns="http://www.w3.org/2000/svg">
<path d="M11.5 0.000175924C5.7862 0.000175924 0 1.68246 0 4.89577V22.7043C0 25.9177 5.7862 27.5999 11.5 27.5999C17.2138 27.5999 23 25.9177 23 22.7042V4.8956C23 1.68229 17.2138 0 11.5 0V0.000175924ZM20.7 22.7045C20.7 23.4798 17.5688 25.3001 11.5 25.3001C5.43123 25.3001 2.3 23.4798 2.3 22.7045V16.6881C4.50806 17.9037 8.0172 18.5313 11.5 18.5313C14.9828 18.5313 18.4921 17.9037 20.7 16.6881V22.7045ZM20.7 13.6359C20.7 14.4113 17.5688 16.2315 11.5 16.2315C5.43123 16.2315 2.3 14.4113 2.3 13.6359V7.95143C4.50806 9.16708 8.0172 9.7946 11.5 9.7946C14.9828 9.7946 18.4921 9.16708 20.7 7.95143V13.6359Z" fill="#FFFFFF"/>
<path d="M7.48145 12.3872C7.48145 13.3253 6.72098 14.0858 5.78268 14.0858C4.8446 14.0858 4.08414 13.3253 4.08414 12.3872C4.08414 11.4489 4.8446 10.6885 5.78268 10.6885C6.72098 10.6885 7.48145 11.4489 7.48145 12.3872Z" fill="#FFFFFF"/>
<path d="M7.48145 20.9301C7.48145 21.8682 6.72098 22.6289 5.78268 22.6289C4.8446 22.6289 4.08414 21.8682 4.08414 20.9301C4.08414 19.992 4.8446 19.2313 5.78268 19.2313C6.72098 19.2313 7.48145 19.992 7.48145 20.9301Z" fill="#FFFFFF"/>
</svg>
